<?xml version="1.0" encoding="UTF-8" standalone="no"?>
<!DOCTYPE svg PUBLIC "-//W3C//DTD SVG 1.1//EN"
 "http://www.w3.org/Graphics/SVG/1.1/DTD/svg11.dtd">
<!-- Generated by graphviz version 2.26.3 (20100126.1600)
 -->
<!-- Title: G Pages: 1 -->
<svg width="1130pt" height="220pt"
 viewBox="0.00 0.00 1130.15 220.00" xmlns="http://www.w3.org/2000/svg" xmlns:xlink="http://www.w3.org/1999/xlink">
<g id="graph1" class="graph" transform="scale(1 1) rotate(0) translate(4 216)">
<title>G</title>
<polygon fill="white" stroke="white" points="-4,5 -4,-216 1127.15,-216 1127.15,5 -4,5"/>
<!-- N_0_0 -->
<g id="node1" class="node"><title>N_0_0</title>
<ellipse fill="none" stroke="black" cx="300.151" cy="-194" rx="35.2434" ry="18"/>
<text text-anchor="middle" x="300.151" y="-188.9" font-family="Times,serif" font-size="14.00">N_0_0</text>
</g>
<!-- N_1_0 -->
<g id="node3" class="node"><title>N_1_0</title>
<ellipse fill="none" stroke="black" cx="596.151" cy="-106" rx="35.0969" ry="18"/>
<text text-anchor="middle" x="596.151" y="-100.9" font-family="Times,serif" font-size="14.00">N_1_0</text>
</g>
<!-- N_0_0&#45;&gt;N_1_0 -->
<g id="edge2" class="edge"><title>N_0_0&#45;&gt;N_1_0</title>
<path fill="none" stroke="black" d="M333.441,-188.268C359.268,-182.911 395.392,-173.385 424.151,-158 433.886,-152.792 433.286,-146.955 443.151,-142 477.328,-124.833 519.942,-115.673 551.511,-110.898"/>
<polygon fill="black" stroke="black" points="552.357,-114.313 561.766,-109.441 551.373,-107.382 552.357,-114.313"/>
<text text-anchor="middle" x="502.651" y="-144.9" font-family="Times,serif" font-size="14.00">3.967126986504735</text>
</g>
<!-- N_1_1 -->
<g id="node6" class="node"><title>N_1_1</title>
<ellipse fill="none" stroke="black" cx="447.151" cy="-106" rx="33.9477" ry="18"/>
<text text-anchor="middle" x="447.151" y="-100.9" font-family="Times,serif" font-size="14.00">N_1_1</text>
</g>
<!-- N_0_0&#45;&gt;N_1_1 -->
<g id="edge6" class="edge"><title>N_0_0&#45;&gt;N_1_1</title>
<path fill="none" stroke="black" d="M265.024,-192.604C212.56,-189.315 123.235,-178.352 156.151,-142 169.717,-127.019 317.113,-126.633 337.151,-124 359.473,-121.067 384.226,-117.082 404.589,-113.607"/>
<polygon fill="black" stroke="black" points="405.242,-117.046 414.501,-111.897 404.052,-110.148 405.242,-117.046"/>
<text text-anchor="middle" x="218.151" y="-144.9" font-family="Times,serif" font-size="14.00">&#45;10.15676599385716</text>
</g>
<!-- N_1_2 -->
<g id="node9" class="node"><title>N_1_2</title>
<ellipse fill="none" stroke="black" cx="294.151" cy="-106" rx="33.9477" ry="18"/>
<text text-anchor="middle" x="294.151" y="-100.9" font-family="Times,serif" font-size="14.00">N_1_2</text>
</g>
<!-- N_0_0&#45;&gt;N_1_2 -->
<g id="edge10" class="edge"><title>N_0_0&#45;&gt;N_1_2</title>
<path fill="none" stroke="black" d="M265.203,-192.308C190.618,-188.339 21.2278,-177.279 4.1514,-158 -29.2876,-120.248 160.856,-109.802 249.979,-106.995"/>
<polygon fill="black" stroke="black" points="250.178,-110.491 260.07,-106.696 249.97,-103.494 250.178,-110.491"/>
<text text-anchor="middle" x="68.6514" y="-144.9" font-family="Times,serif" font-size="14.00">&#45;5.445351490541607</text>
</g>
<!-- N_1_3 -->
<g id="node12" class="node"><title>N_1_3</title>
<ellipse fill="none" stroke="black" cx="740.151" cy="-106" rx="33.9477" ry="18"/>
<text text-anchor="middle" x="740.151" y="-100.9" font-family="Times,serif" font-size="14.00">N_1_3</text>
</g>
<!-- N_0_0&#45;&gt;N_1_3 -->
<g id="edge14" class="edge"><title>N_0_0&#45;&gt;N_1_3</title>
<path fill="none" stroke="black" d="M335.358,-192.759C428.944,-189.202 678.896,-177.926 710.151,-158 719.313,-152.159 725.988,-142.452 730.682,-132.996"/>
<polygon fill="black" stroke="black" points="733.915,-134.34 734.735,-123.777 727.507,-131.523 733.915,-134.34"/>
<text text-anchor="middle" x="787.651" y="-144.9" font-family="Times,serif" font-size="14.00">4.3377064538534515</text>
</g>
<!-- N_0_1 -->
<g id="node2" class="node"><title>N_0_1</title>
<ellipse fill="none" stroke="black" cx="735.151" cy="-194" rx="35.0969" ry="18"/>
<text text-anchor="middle" x="735.151" y="-188.9" font-family="Times,serif" font-size="14.00">N_0_1</text>
</g>
<!-- N_0_1&#45;&gt;N_1_0 -->
<g id="edge4" class="edge"><title>N_0_1&#45;&gt;N_1_0</title>
<path fill="none" stroke="black" d="M769.893,-191.223C815.924,-186.276 888.221,-173.34 860.151,-142 835.838,-114.854 733.221,-129.2 697.151,-124 678.052,-121.247 657.03,-117.6 639.132,-114.309"/>
<polygon fill="black" stroke="black" points="639.741,-110.862 629.269,-112.474 638.46,-117.744 639.741,-110.862"/>
<text text-anchor="middle" x="925.151" y="-144.9" font-family="Times,serif" font-size="14.00">3.126340130141585</text>
</g>
<!-- N_0_1&#45;&gt;N_1_1 -->
<g id="edge8" class="edge"><title>N_0_1&#45;&gt;N_1_1</title>
<path fill="none" stroke="black" d="M701.237,-189.25C670.881,-184.168 625.663,-174.515 589.151,-158 577.806,-152.868 577.36,-147.425 566.151,-142 541.527,-130.081 512.117,-121.14 488.695,-115.15"/>
<polygon fill="black" stroke="black" points="489.273,-111.687 478.725,-112.684 487.592,-118.482 489.273,-111.687"/>
<text text-anchor="middle" x="649.651" y="-144.9" font-family="Times,serif" font-size="14.00">&#45;11.63918922035378</text>
</g>
<!-- N_0_1&#45;&gt;N_1_2 -->
<g id="edge12" class="edge"><title>N_0_1&#45;&gt;N_1_2</title>
<path fill="none" stroke="black" d="M700.025,-193.634C601.433,-192.259 327.469,-185.938 299.151,-158 292.887,-151.819 290.653,-142.854 290.294,-134.102"/>
<polygon fill="black" stroke="black" points="293.792,-134.21 290.605,-124.106 286.796,-133.992 293.792,-134.21"/>
<text text-anchor="middle" x="359.651" y="-144.9" font-family="Times,serif" font-size="14.00">&#45;6.723911572648172</text>
</g>
<!-- N_0_1&#45;&gt;N_1_3 -->
<g id="edge16" class="edge"><title>N_0_1&#45;&gt;N_1_3</title>
<path fill="none" stroke="black" d="M769.924,-191.81C838.561,-187.132 986.146,-175.173 1001.15,-158 1005.83,-152.645 1005.82,-147.361 1001.15,-142 987.144,-125.928 855.121,-114.173 784.398,-108.97"/>
<polygon fill="black" stroke="black" points="784.242,-105.45 774.016,-108.221 783.738,-112.432 784.242,-105.45"/>
<text text-anchor="middle" x="1063.15" y="-144.9" font-family="Times,serif" font-size="14.00">4.546212771419783</text>
</g>
<!-- N_2_0 -->
<g id="node15" class="node"><title>N_2_0</title>
<ellipse fill="none" stroke="black" cx="521.151" cy="-18" rx="35.0969" ry="18"/>
<text text-anchor="middle" x="521.151" y="-12.9" font-family="Times,serif" font-size="14.00">N_2_0</text>
</g>
<!-- N_1_0&#45;&gt;N_2_0 -->
<g id="edge18" class="edge"><title>N_1_0&#45;&gt;N_2_0</title>
<path fill="none" stroke="black" d="M591.284,-87.7685C587.782,-77.1064 582.235,-63.8509 574.151,-54 568.793,-47.4704 561.95,-41.6469 554.975,-36.6852"/>
<polygon fill="black" stroke="black" points="556.444,-33.4614 546.171,-30.8729 552.588,-39.3032 556.444,-33.4614"/>
<text text-anchor="middle" x="643.651" y="-56.9" font-family="Times,serif" font-size="14.00">7.645051842417805</text>
</g>
<!-- N_1_1&#45;&gt;N_2_0 -->
<g id="edge20" class="edge"><title>N_1_1&#45;&gt;N_2_0</title>
<path fill="none" stroke="black" d="M443.065,-87.81C441.698,-77.1627 441.857,-63.9081 448.151,-54 455.397,-42.5941 467.415,-34.6862 479.63,-29.2545"/>
<polygon fill="black" stroke="black" points="480.926,-32.5055 488.932,-25.5665 478.346,-25.9982 480.926,-32.5055"/>
<text text-anchor="middle" x="511.151" y="-56.9" font-family="Times,serif" font-size="14.00">&#45;19.02772009949845</text>
</g>
<!-- N_1_2&#45;&gt;N_2_0 -->
<g id="edge22" class="edge"><title>N_1_2&#45;&gt;N_2_0</title>
<path fill="none" stroke="black" d="M294.697,-87.7941C296.038,-76.4488 299.692,-62.4502 309.151,-54 333.15,-32.5631 420.962,-23.6726 475.761,-20.1519"/>
<polygon fill="black" stroke="black" points="476.149,-23.6349 485.919,-19.5362 475.725,-16.6477 476.149,-23.6349"/>
<text text-anchor="middle" x="374.151" y="-56.9" font-family="Times,serif" font-size="14.00">&#45;10.255011134874735</text>
</g>
<!-- N_1_3&#45;&gt;N_2_0 -->
<g id="edge24" class="edge"><title>N_1_3&#45;&gt;N_2_0</title>
<path fill="none" stroke="black" d="M733.581,-88.0894C728.423,-76.5676 720.099,-62.2557 708.151,-54 685.599,-38.416 613.795,-27.9157 566.012,-22.4522"/>
<polygon fill="black" stroke="black" points="566.236,-18.9556 555.911,-21.3309 565.464,-25.9129 566.236,-18.9556"/>
<text text-anchor="middle" x="783.151" y="-56.9" font-family="Times,serif" font-size="14.00">9.369800040984142</text>
</g>
</g>
</svg>
