<?xml version="1.0" encoding="UTF-8" standalone="no"?>
<!DOCTYPE svg PUBLIC "-//W3C//DTD SVG 1.1//EN"
 "http://www.w3.org/Graphics/SVG/1.1/DTD/svg11.dtd">
<!-- Generated by graphviz version 2.26.3 (20100126.1600)
 -->
<!-- Title: G Pages: 1 -->
<svg width="1146pt" height="220pt"
 viewBox="0.00 0.00 1146.30 220.00" xmlns="http://www.w3.org/2000/svg" xmlns:xlink="http://www.w3.org/1999/xlink">
<g id="graph1" class="graph" transform="scale(1 1) rotate(0) translate(4 216)">
<title>G</title>
<polygon fill="white" stroke="white" points="-4,5 -4,-216 1143.3,-216 1143.3,5 -4,5"/>
<!-- N_0_0 -->
<g id="node1" class="node"><title>N_0_0</title>
<ellipse fill="none" stroke="black" cx="306.297" cy="-194" rx="35.2434" ry="18"/>
<text text-anchor="middle" x="306.297" y="-188.9" font-family="Times,serif" font-size="14.00">N_0_0</text>
</g>
<!-- N_1_0 -->
<g id="node3" class="node"><title>N_1_0</title>
<ellipse fill="none" stroke="black" cx="597.297" cy="-106" rx="35.0969" ry="18"/>
<text text-anchor="middle" x="597.297" y="-100.9" font-family="Times,serif" font-size="14.00">N_1_0</text>
</g>
<!-- N_0_0&#45;&gt;N_1_0 -->
<g id="edge2" class="edge"><title>N_0_0&#45;&gt;N_1_0</title>
<path fill="none" stroke="black" d="M339.588,-188.369C365.641,-183.048 402.208,-173.522 431.297,-158 441.037,-152.803 440.455,-147 450.297,-142 468.337,-132.836 517.88,-121.668 554.489,-114.224"/>
<polygon fill="black" stroke="black" points="555.318,-117.627 564.434,-112.228 553.941,-110.764 555.318,-117.627"/>
<text text-anchor="middle" x="504.797" y="-144.9" font-family="Times,serif" font-size="14.00">627.598721296336</text>
</g>
<!-- N_1_1 -->
<g id="node6" class="node"><title>N_1_1</title>
<ellipse fill="none" stroke="black" cx="454.297" cy="-106" rx="33.9477" ry="18"/>
<text text-anchor="middle" x="454.297" y="-100.9" font-family="Times,serif" font-size="14.00">N_1_1</text>
</g>
<!-- N_0_0&#45;&gt;N_1_1 -->
<g id="edge6" class="edge"><title>N_0_0&#45;&gt;N_1_1</title>
<path fill="none" stroke="black" d="M271.35,-192.672C218.574,-189.475 128.041,-178.631 161.297,-142 175.254,-126.627 326.714,-126.724 347.297,-124 368.766,-121.159 392.531,-117.24 412.2,-113.783"/>
<polygon fill="black" stroke="black" points="412.846,-117.224 422.078,-112.026 411.62,-110.332 412.846,-117.224"/>
<text text-anchor="middle" x="222.797" y="-144.9" font-family="Times,serif" font-size="14.00">&#45;533.2583598109652</text>
</g>
<!-- N_1_2 -->
<g id="node9" class="node"><title>N_1_2</title>
<ellipse fill="none" stroke="black" cx="304.297" cy="-106" rx="33.9477" ry="18"/>
<text text-anchor="middle" x="304.297" y="-100.9" font-family="Times,serif" font-size="14.00">N_1_2</text>
</g>
<!-- N_0_0&#45;&gt;N_1_2 -->
<g id="edge10" class="edge"><title>N_0_0&#45;&gt;N_1_2</title>
<path fill="none" stroke="black" d="M271.215,-192.391C195.421,-188.555 21.7823,-177.693 4.2975,-158 -30.5098,-118.797 168.729,-109.127 260.22,-106.759"/>
<polygon fill="black" stroke="black" points="260.386,-110.256 270.299,-106.517 260.217,-103.258 260.386,-110.256"/>
<text text-anchor="middle" x="71.2975" y="-144.9" font-family="Times,serif" font-size="14.00">&#45;246.27694368997564</text>
</g>
<!-- N_1_3 -->
<g id="node12" class="node"><title>N_1_3</title>
<ellipse fill="none" stroke="black" cx="744.297" cy="-106" rx="33.9477" ry="18"/>
<text text-anchor="middle" x="744.297" y="-100.9" font-family="Times,serif" font-size="14.00">N_1_3</text>
</g>
<!-- N_0_0&#45;&gt;N_1_3 -->
<g id="edge14" class="edge"><title>N_0_0&#45;&gt;N_1_3</title>
<path fill="none" stroke="black" d="M341.266,-192.953C435.482,-189.855 689.603,-179.57 720.297,-158 728.542,-152.206 734.02,-142.851 737.63,-133.661"/>
<polygon fill="black" stroke="black" points="741.031,-134.524 740.856,-123.931 734.387,-132.321 741.031,-134.524"/>
<text text-anchor="middle" x="792.297" y="-144.9" font-family="Times,serif" font-size="14.00">553.0796234593579</text>
</g>
<!-- N_0_1 -->
<g id="node2" class="node"><title>N_0_1</title>
<ellipse fill="none" stroke="black" cx="735.297" cy="-194" rx="35.0969" ry="18"/>
<text text-anchor="middle" x="735.297" y="-188.9" font-family="Times,serif" font-size="14.00">N_0_1</text>
</g>
<!-- N_0_1&#45;&gt;N_1_0 -->
<g id="edge4" class="edge"><title>N_0_1&#45;&gt;N_1_0</title>
<path fill="none" stroke="black" d="M770.056,-191.478C817.113,-186.809 892.092,-174.171 863.297,-142 839.141,-115.01 737.159,-129.091 701.297,-124 681.245,-121.153 659.121,-117.409 640.452,-114.073"/>
<polygon fill="black" stroke="black" points="640.934,-110.604 630.471,-112.27 639.689,-117.492 640.934,-110.604"/>
<text text-anchor="middle" x="929.797" y="-144.9" font-family="Times,serif" font-size="14.00">640.1743198244116</text>
</g>
<!-- N_0_1&#45;&gt;N_1_1 -->
<g id="edge8" class="edge"><title>N_0_1&#45;&gt;N_1_1</title>
<path fill="none" stroke="black" d="M701.289,-189.46C670.306,-184.479 623.799,-174.857 586.297,-158 574.94,-152.895 574.437,-147.566 563.297,-142 541.696,-131.206 516.123,-122.565 495.178,-116.457"/>
<polygon fill="black" stroke="black" points="495.881,-113.018 485.306,-113.663 493.975,-119.754 495.881,-113.018"/>
<text text-anchor="middle" x="653.297" y="-144.9" font-family="Times,serif" font-size="14.00">&#45;449.72184215094575</text>
</g>
<!-- N_0_1&#45;&gt;N_1_2 -->
<g id="edge12" class="edge"><title>N_0_1&#45;&gt;N_1_2</title>
<path fill="none" stroke="black" d="M700.006,-193.735C601.659,-192.634 329.956,-186.972 303.297,-158 297.365,-151.553 296.073,-142.522 296.757,-133.793"/>
<polygon fill="black" stroke="black" points="300.224,-134.277 298.307,-123.857 293.307,-133.198 300.224,-134.277"/>
<text text-anchor="middle" x="365.297" y="-144.9" font-family="Times,serif" font-size="14.00">&#45;350.4652966132313</text>
</g>
<!-- N_0_1&#45;&gt;N_1_3 -->
<g id="edge16" class="edge"><title>N_0_1&#45;&gt;N_1_3</title>
<path fill="none" stroke="black" d="M770.315,-191.905C840.259,-187.361 991.894,-175.576 1007.3,-158 1011.98,-152.652 1011.97,-147.358 1007.3,-142 993.13,-125.761 859.257,-114.033 788.172,-108.894"/>
<polygon fill="black" stroke="black" points="788.384,-105.4 778.161,-108.183 787.888,-112.382 788.384,-105.4"/>
<text text-anchor="middle" x="1074.3" y="-144.9" font-family="Times,serif" font-size="14.00">230.36540616193054</text>
</g>
<!-- N_2_0 -->
<g id="node15" class="node"><title>N_2_0</title>
<ellipse fill="none" stroke="black" cx="525.297" cy="-18" rx="35.0969" ry="18"/>
<text text-anchor="middle" x="525.297" y="-12.9" font-family="Times,serif" font-size="14.00">N_2_0</text>
</g>
<!-- N_1_0&#45;&gt;N_2_0 -->
<g id="edge18" class="edge"><title>N_1_0&#45;&gt;N_2_0</title>
<path fill="none" stroke="black" d="M592.332,-87.8482C588.795,-77.2144 583.246,-63.9606 575.297,-54 570.278,-47.7098 563.891,-42.0076 557.372,-37.0909"/>
<polygon fill="black" stroke="black" points="559.332,-34.1903 549.14,-31.2983 555.304,-39.9152 559.332,-34.1903"/>
<text text-anchor="middle" x="646.297" y="-56.9" font-family="Times,serif" font-size="14.00">&#45;822.5714162714294</text>
</g>
<!-- N_1_1&#45;&gt;N_2_0 -->
<g id="edge20" class="edge"><title>N_1_1&#45;&gt;N_2_0</title>
<path fill="none" stroke="black" d="M450.272,-87.8483C448.926,-77.2146 449.087,-63.9608 455.297,-54 461.963,-43.3095 472.905,-35.6501 484.18,-30.2251"/>
<polygon fill="black" stroke="black" points="485.825,-33.328 493.642,-26.176 483.071,-26.8924 485.825,-33.328"/>
<text text-anchor="middle" x="515.297" y="-56.9" font-family="Times,serif" font-size="14.00">654.0515743587523</text>
</g>
<!-- N_1_2&#45;&gt;N_2_0 -->
<g id="edge22" class="edge"><title>N_1_2&#45;&gt;N_2_0</title>
<path fill="none" stroke="black" d="M304.856,-87.8093C306.203,-76.4703 309.858,-62.4729 319.297,-54 342.411,-33.2537 426.644,-24.1581 479.975,-20.407"/>
<polygon fill="black" stroke="black" points="480.457,-23.8827 490.202,-19.7261 479.992,-16.8982 480.457,-23.8827"/>
<text text-anchor="middle" x="382.797" y="-56.9" font-family="Times,serif" font-size="14.00">217.91042031591496</text>
</g>
<!-- N_1_3&#45;&gt;N_2_0 -->
<g id="edge24" class="edge"><title>N_1_3&#45;&gt;N_2_0</title>
<path fill="none" stroke="black" d="M737.727,-88.0894C732.569,-76.5676 724.245,-62.2557 712.297,-54 689.745,-38.416 617.941,-27.9157 570.158,-22.4522"/>
<polygon fill="black" stroke="black" points="570.382,-18.9556 560.057,-21.3309 569.61,-25.9129 570.382,-18.9556"/>
<text text-anchor="middle" x="786.797" y="-56.9" font-family="Times,serif" font-size="14.00">&#45;428.2261731591763</text>
</g>
</g>
</svg>
